# xmcd CD database file
#
# Track frame offsets:
#	150
#	18310
#	37399
#	59885
#	82183
#	100020
#	120395
#	139556
#	159078
#	179051
#
# Disc length: 2992 seconds
#
# Revision: 1
# Processed by: cddbd v1.5.2PL0 Copyright (c) Steve Scherf et al.
# Submitted via: CDex 1.70beta2
#
DISCID=870bae0a
DTITLE=Mikro - Download
DYEAR=2010
DGENRE=Electro Pop
TTITLE0=(01) Πόσο ακόμα
TTITLE1=(02) My Friends
TTITLE2=(03) War
TTITLE3=(04) Multiverse
TTITLE4=(05) Paradise
TTITLE5=(06) Robonation
TTITLE6=(07) ήρθε η ώρα
TTITLE7=(08) People
TTITLE8=(09) μικρό παιδί
TTITLE9=(10) Paradise (Dance Mix)
EXTD=YEAR: 2010
EXTT0=
EXTT1=
EXTT2=
EXTT3=
EXTT4=
EXTT5=
EXTT6=
EXTT7=
EXTT8=
EXTT9=
PLAYORDER=
